<svg xmlns="http://www.w3.org/2000/svg" version="1.1" xmlns:xlink="http://www.w3.org/1999/xlink" width="200" height="200"><svg xmlns="http://www.w3.org/2000/svg" version="1.1" xmlns:xlink="http://www.w3.org/1999/xlink" viewBox="0 0 200 200"><rect width="200" height="200" fill="url('#gradient')"></rect><defs><linearGradient id="SvgjsLinearGradient1001" gradientTransform="rotate(45 0.5 0.5)"><stop offset="0%" stop-color="#ceaa96"></stop><stop offset="100%" stop-color="#8fa983"></stop></linearGradient></defs><g><g fill="#445272" transform="matrix(2.019723865877712,0,0,2.019723865877712,10.080407718633701,110.83702827205319)" stroke="#c8512e" stroke-width="0.2"><path d="M3.48-10.57L5.15-4.61L6.90-10.57L10.43-10.57L6.12 1.77L5.94 2.22Q5.02 4.27 2.70 4.27L2.70 4.27Q2.05 4.27 1.34 4.07L1.34 4.07L1.34 1.72L1.77 1.72Q2.46 1.72 2.83 1.52Q3.19 1.32 3.37 0.80L3.37 0.80L3.63 0.10L-0.04-10.57L3.48-10.57ZM13.84-10.57L15.51-4.61L17.27-10.57L20.79-10.57L16.48 1.77L16.30 2.22Q15.38 4.27 13.06 4.27L13.06 4.27Q12.41 4.27 11.70 4.07L11.70 4.07L11.70 1.72L12.13 1.72Q12.82 1.72 13.19 1.52Q13.55 1.32 13.73 0.80L13.73 0.80L13.99 0.10L10.32-10.57L13.84-10.57ZM21.10-5.36L21.10-5.36Q21.10-7.87 22.19-9.32Q23.27-10.76 25.21-10.76L25.21-10.76Q26.63-10.76 27.60-9.65L27.60-9.65L27.60-15L30.90-15L30.90 0L27.94 0L27.77-1.13Q26.76 0.20 25.20 0.20L25.20 0.20Q23.31 0.20 22.21-1.25Q21.10-2.70 21.10-5.36ZM24.40-5.76L24.39-5.16Q24.39-2.34 26.04-2.34L26.04-2.34Q27.13-2.34 27.60-3.26L27.60-3.26L27.60-7.29Q27.15-8.22 26.05-8.22L26.05-8.22Q24.53-8.22 24.40-5.76L24.40-5.76ZM33.01-10.57L36.31-10.57L36.31 0.36Q36.30 2.24 35.23 3.25Q34.17 4.27 32.27 4.27L32.27 4.27Q31.45 4.27 30.71 4.10L30.71 4.10L30.71 1.61Q31.28 1.70 31.64 1.70L31.64 1.70Q33.01 1.70 33.01 0.34L33.01 0.34L33.01-10.57ZM32.76-13.29L32.76-13.29Q32.76-13.99 33.27-14.44Q33.78-14.89 34.59-14.89Q35.40-14.89 35.91-14.44Q36.42-13.99 36.42-13.29Q36.42-12.59 35.91-12.14Q35.40-11.69 34.59-11.69Q33.78-11.69 33.27-12.14Q32.76-12.59 32.76-13.29ZM38.71-13.19L42.00-13.19L42.00-10.57L43.74-10.57L43.74-8.28L42.00-8.28L42.00-3.45Q42.00-2.85 42.22-2.62Q42.43-2.38 43.07-2.38L43.07-2.38Q43.55-2.38 43.89-2.44L43.89-2.44L43.89-0.09Q43.00 0.20 42.03 0.20L42.03 0.20Q40.33 0.20 39.52-0.61Q38.71-1.41 38.71-3.04L38.71-3.04L38.71-8.28L37.36-8.28L37.36-10.57L38.71-10.57L38.71-13.19ZM49.50-2.34L49.50-2.34Q50.20-2.34 50.58-2.72Q50.96-3.10 50.95-3.77L50.95-3.77L54.03-3.77Q54.03-2.03 52.79-0.92Q51.54 0.20 49.58 0.20L49.58 0.20Q47.28 0.20 45.95-1.25Q44.62-2.70 44.62-5.25L44.62-5.25L44.62-5.39Q44.62-6.99 45.21-8.22Q45.80-9.44 46.91-10.10Q48.03-10.76 49.55-10.76L49.55-10.76Q51.61-10.76 52.82-9.62Q54.03-8.48 54.03-6.52L54.03-6.52L50.95-6.52Q50.95-7.34 50.55-7.78Q50.15-8.22 49.47-8.22L49.47-8.22Q48.19-8.22 47.98-6.59L47.98-6.59Q47.91-6.07 47.91-5.17L47.91-5.17Q47.91-3.57 48.29-2.96Q48.67-2.34 49.50-2.34ZM57.46-3.19L57.46-3.19Q58.24-3.19 58.76-2.73Q59.28-2.27 59.28-1.54Q59.28-0.82 58.76-0.36Q58.24 0.11 57.46 0.11L57.46 0.11Q56.67 0.11 56.16-0.36Q55.64-0.83 55.64-1.54Q55.64-2.26 56.16-2.72Q56.67-3.19 57.46-3.19ZM62.01-13.19L65.30-13.19L65.30-10.57L67.04-10.57L67.04-8.28L65.30-8.28L65.30-3.45Q65.30-2.85 65.52-2.62Q65.73-2.38 66.37-2.38L66.37-2.38Q66.86-2.38 67.19-2.44L67.19-2.44L67.19-0.09Q66.30 0.20 65.33 0.20L65.33 0.20Q63.63 0.20 62.82-0.61Q62.01-1.41 62.01-3.04L62.01-3.04L62.01-8.28L60.66-8.28L60.66-10.57L62.01-10.57L62.01-13.19ZM67.64-4.82L67.63-5.38Q67.63-6.96 68.24-8.20Q68.86-9.43 70.01-10.10Q71.16-10.76 72.71-10.76L72.71-10.76Q75.09-10.76 76.46-9.29Q77.82-7.82 77.82-5.29L77.82-5.29L77.82-5.18Q77.82-2.71 76.45-1.25Q75.08 0.20 72.73 0.20L72.73 0.20Q70.48 0.20 69.11-1.16Q67.74-2.51 67.64-4.82L67.64-4.82ZM70.93-5.77L70.92-5.18Q70.92-3.71 71.38-3.03Q71.84-2.34 72.73-2.34L72.73-2.34Q74.49-2.34 74.53-5.05L74.53-5.05L74.53-5.38Q74.53-8.22 72.71-8.22L72.71-8.22Q71.06-8.22 70.93-5.77L70.93-5.77ZM89.08-5.36L89.08-5.21Q89.08-2.74 87.97-1.27Q86.87 0.20 84.98 0.20L84.98 0.20Q83.53 0.20 82.59-0.87L82.59-0.87L82.59 4.06L79.30 4.06L79.30-10.57L82.37-10.57L82.47-9.59Q83.42-10.76 84.96-10.76L84.96-10.76Q86.91-10.76 88.00-9.32Q89.08-7.88 89.08-5.36L89.08-5.36ZM85.79-5.06L85.79-5.41Q85.79-8.22 84.15-8.22L84.15-8.22Q82.98-8.22 82.59-7.38L82.59-7.38L82.59-3.22Q83.02-2.34 84.17-2.34L84.17-2.34Q85.74-2.34 85.79-5.06L85.79-5.06Z"></path></g></g></svg><style>@media (prefers-color-scheme: light) { :root { filter: none; } }
@media (prefers-color-scheme: dark) { :root { filter: none; } }
</style></svg>